<?xml version="1.0" encoding="utf-8"?>
<!-- Svg Vector Icons : http://www.onlinewebfonts.com/icon -->
<!DOCTYPE svg PUBLIC "-//W3C//DTD SVG 1.1//EN" "http://www.w3.org/Graphics/SVG/1.1/DTD/svg11.dtd">
<svg version="1.1" xmlns="http://www.w3.org/2000/svg" xmlns:xlink="http://www.w3.org/1999/xlink" x="0px" y="0px" viewBox="0 0 1000 1000" enable-background="new 0 0 1000 1000" xml:space="preserve">
<metadata> Svg Vector Icons : http://www.onlinewebfonts.com/icon </metadata>
<g><path d="M500,10C229.3,10,10,229.3,10,500c0,270.7,219.3,490,490,490c270.7,0,490-219.3,490-490C990,229.3,770.7,10,500,10z M500,157c81.1,0,147,65.9,147,147c0,81.3-65.9,147-147,147c-81.1,0-147-65.7-147-147C353,222.9,418.9,157,500,157z M500,852.8c-122.7,0-230.5-62.7-294-157.8c1.2-97.3,196.2-150.9,294-150.9c97.8,0,292.5,53.7,294,150.9C730.5,790.1,622.7,852.8,500,852.8z"/></g>
</svg>